# xmcd
#
# Track frame offsets:
#	154
#	23926
#	48368
#	68320
#	91858
#	110718
#	136051
#	152318
#	175544
#	193351
#	210228
#	226840
#	248174
#	296207
#	313835
#
# Disc length: 4467
#
# Revision: 1
# Processed by: cddbd v1.5.1PL0 Copyright (c) Steve Scherf et al.
# Submitted via: Feurio! 1.65 - http://www.feurio.com
# Normalized: r0:DSETVAR1
#
DISCID=c211710f
DTITLE=Various Artist - Night Mood Dusties
DYEAR=1900
DGENRE=blues
TTITLE0=Atlantic Starr - Let's Get Closer
TTITLE1=Teddy Pendergrass - Close The Door
TTITLE2=MTume - You, Me and He
TTITLE3=ConFunkShun - Love's Train
TTITLE4=Friends Of Distinction - Going In Circles
TTITLE5=Isley Brothers - For The Love Of You
TTITLE6=Stevie Wonder - Knocks Me Off My Feet
TTITLE7=Chi-Lites - Have You Seen Her
TTITLE8=Minnie Riperton - Inside My Love
TTITLE9=Prince - If I Was Your Girlfriend
TTITLE10=Taste Of Honey - Sukiyaki
TTITLE11=Cameo - Why Have I Lost You
TTITLE12=Wee Gee - Hold On (Full Length Version)
TTITLE13=Rose Royce - Wishing On A Star
TTITLE14=David Ruffin - Walk Away From Love
EXTD=
EXTT0=
EXTT1=
EXTT2=
EXTT3=
EXTT4=
EXTT5=
EXTT6=
EXTT7=
EXTT8=
EXTT9=
EXTT10=
EXTT11=
EXTT12=
EXTT13=
EXTT14=
PLAYORDER=
